# xmcd
#
# Track frame offsets:
#	150
#	12407
#	25725
#	39380
#	53740
#	66847
#	81885
#	93967
#	105910
#	120550
#	136177
#
# Disc length: 2015 seconds
#
# Revision: 4
# Processed by: cddbd v1.5.2PL0 Copyright (c) Steve Scherf et al.
# Submitted via: EZCDAudioConverter 6.0.2.1
#
DISCID=7e07dd0b
DTITLE=Sweethearts Of The Rodeo - One Time, One Night
DYEAR=1988
DGENRE=Country
TTITLE0=Satisfy You
TTITLE1=Blue To The Bone
TTITLE2=We Won't Let That River Come Between Us
TTITLE3=So Sad (To Watch Good Love Go Bad)
TTITLE4=Don't Look Down
TTITLE5=One Time, One Night
TTITLE6=You Never Talk Sweet
TTITLE7=I Feel Fine
TTITLE8=If I Never See Midnight Again
TTITLE9=Gone Again
TTITLE10=Until I Stop Dancing
EXTD=
EXTT0=
EXTT1=
EXTT2=
EXTT3=
EXTT4=
EXTT5=
EXTT6=
EXTT7=
EXTT8=
EXTT9=
EXTT10=
PLAYORDER=
